# xmcd
#
# Track frame offsets:
#	150
#	23065
#	41410
#	66058
#	81178
#	100335
#	113948
#	140255
#	168658
#
# Disc length: 2530 seconds
#
# Revision: 1
# Processed by: cddbd v1.5.1PL2 Copyright (c) Steve Scherf et al.
# Submitted via: audiograbber 1.83.01
#
DISCID=7109e009
DTITLE=Dire Straits - Remasters
DYEAR=1900
DGENRE=
TTITLE0=Lions
TTITLE1=Down to the Waterline
TTITLE2=Water of Love
TTITLE3=Setting Me Up
TTITLE4=Six Blade Knife
TTITLE5=Southbound Again
TTITLE6=Sultans of Swing
TTITLE7=In the Galley
TTITLE8=Wild West End
EXTD=
EXTT0=
EXTT1=
EXTT2=
EXTT3=
EXTT4=
EXTT5=
EXTT6=
EXTT7=
EXTT8=
PLAYORDER=
